<?xml version="1.0" standalone="no"?>
<!DOCTYPE svg PUBLIC "-//W3C//DTD SVG 20010904//EN"
 "http://www.w3.org/TR/2001/REC-SVG-20010904/DTD/svg10.dtd">
<svg version="1.0" xmlns="http://www.w3.org/2000/svg"
 width="512.000000pt" height="512.000000pt" viewBox="0 0 512.000000 512.000000"
 preserveAspectRatio="xMidYMid meet">

<g transform="translate(0.000000,512.000000) scale(0.100000,-0.100000)"
fill="#fff" stroke="none">
<path d="M1865 4935 c-14 -13 -25 -36 -25 -50 0 -15 56 -127 131 -261 l130
-235 -51 -57 c-62 -68 -148 -194 -156 -228 -10 -41 4 -73 41 -91 50 -24 73 -9
144 94 33 48 92 123 131 166 43 47 70 86 70 100 0 12 -42 99 -94 192 -52 94
-93 171 -91 173 2 2 121 -33 265 -77 144 -45 272 -81 284 -81 13 0 51 11 85
25 152 62 355 102 561 112 702 31 1335 -352 1482 -898 31 -117 31 -306 0 -433
-38 -151 -110 -287 -219 -413 -63 -73 -71 -117 -27 -152 47 -37 72 -28 146 49
213 221 326 589 274 890 -42 240 -140 430 -321 619 -440 459 -1199 622 -1875
402 l-115 -37 -350 108 c-192 59 -360 108 -373 108 -13 0 -34 -11 -47 -25z"/>
<path d="M1385 3910 c-328 -37 -655 -165 -892 -349 -359 -278 -536 -667 -482
-1057 30 -217 134 -441 276 -594 l54 -59 -130 -235 c-75 -134 -131 -246 -131
-261 0 -32 41 -75 72 -75 13 0 181 49 373 108 l350 108 115 -37 c219 -72 451
-105 671 -97 118 4 131 7 154 28 31 29 34 81 5 110 -11 11 -23 20 -27 21 -5 0
-93 1 -198 3 -247 4 -389 27 -585 98 -47 17 -98 32 -115 35 -19 3 -124 -25
-293 -77 -145 -45 -265 -80 -267 -78 -2 2 39 79 91 173 52 93 94 180 94 192 0
15 -28 53 -76 105 -132 144 -208 278 -256 456 -31 114 -31 316 0 431 148 546
779 929 1482 898 397 -18 735 -143 1000 -370 87 -74 146 -141 218 -249 69
-103 102 -119 156 -77 19 15 26 30 26 56 0 92 -247 374 -440 502 -207 138
-447 230 -720 276 -112 19 -412 27 -525 15z"/>
<path d="M3301 2949 c-284 -32 -578 -137 -805 -289 -681 -456 -769 -1258 -197
-1802 394 -375 1022 -538 1609 -418 l87 17 272 -148 c151 -83 284 -149 298
-149 32 0 75 41 75 72 0 13 -23 122 -50 243 -27 121 -48 220 -47 221 39 21
183 143 243 205 133 139 217 271 273 433 136 389 38 798 -269 1120 -239 251
-553 409 -955 481 -109 19 -416 28 -534 14z m407 -160 c614 -67 1096 -418
1224 -890 32 -119 32 -318 0 -437 -64 -239 -220 -449 -455 -616 -61 -43 -99
-77 -103 -91 -3 -13 11 -96 30 -185 20 -90 35 -164 33 -166 -2 -2 -94 46 -205
106 -111 61 -212 110 -225 110 -12 0 -63 -9 -112 -19 -328 -71 -701 -44 -1005
74 -405 156 -689 441 -782 786 -32 120 -32 318 0 438 157 579 860 971 1600
890z"/>
</g>
</svg>
