<?xml version="1.0" standalone="no"?>
<!DOCTYPE svg PUBLIC "-//W3C//DTD SVG 20010904//EN"
 "http://www.w3.org/TR/2001/REC-SVG-20010904/DTD/svg10.dtd">
<svg version="1.0" xmlns="http://www.w3.org/2000/svg"
 width="512.000000pt" height="512.000000pt" viewBox="0 0 512.000000 512.000000"
 preserveAspectRatio="xMidYMid meet">

<g transform="translate(0.000000,512.000000) scale(0.100000,-0.100000)"
fill="#fff" stroke="none">
<path d="M1793 4579 c-271 -31 -498 -148 -694 -357 -332 -353 -389 -863 -153
-1361 53 -112 154 -268 224 -344 28 -30 50 -57 50 -60 0 -2 -26 -8 -57 -12
-109 -13 -218 -46 -328 -100 -284 -139 -483 -393 -546 -700 -17 -80 -19 -141
-19 -546 l0 -456 23 -34 c12 -19 42 -44 67 -56 l44 -23 1516 0 1516 0 44 23
c25 12 55 38 68 57 l23 34 -3 486 c-4 551 -4 549 -94 739 -150 317 -450 535
-796 576 -32 4 -58 10 -58 12 0 3 22 30 50 60 115 126 238 344 299 530 52 159
66 250 65 428 -1 138 -5 173 -26 256 -59 218 -142 364 -297 520 -58 58 -139
127 -180 154 -141 93 -315 154 -496 175 -101 11 -139 11 -242 -1z m345 -345
c403 -117 641 -504 567 -925 -43 -248 -168 -484 -343 -650 -101 -96 -169 -139
-274 -176 -98 -35 -232 -37 -328 -4 -296 101 -559 450 -625 830 -46 264 24
512 198 698 130 139 302 228 486 254 86 12 226 0 319 -27z m-391 -2080 c110
-26 285 -21 400 12 19 5 8 -29 -100 -300 -67 -168 -124 -306 -127 -306 -3 0
-60 137 -127 305 -66 168 -120 305 -118 305 2 0 34 -7 72 -16z m-187 -567
c183 -464 219 -547 250 -579 59 -60 150 -64 213 -8 28 24 64 107 252 579 l220
551 80 0 c104 0 190 -21 295 -72 69 -33 101 -57 175 -132 73 -73 99 -107 133
-176 68 -139 72 -169 72 -557 l0 -343 -1330 0 -1330 0 0 343 c0 387 4 417 72
557 33 69 57 101 132 176 75 75 107 99 176 132 107 52 182 70 290 71 l85 1
215 -543z"/>
<path d="M4621 3717 c-14 -7 -191 -199 -394 -427 -203 -228 -373 -416 -377
-418 -5 -2 -81 88 -170 198 -137 170 -169 205 -207 222 -60 27 -113 17 -164
-29 -48 -44 -66 -100 -49 -155 14 -48 445 -592 496 -627 45 -31 116 -34 162
-5 32 19 877 961 914 1019 26 40 21 129 -10 172 -40 56 -138 80 -201 50z"/>
</g>
</svg>
