<?xml version="1.0" ?><svg style="enable-background:new 0 0 36 36;" version="1.1" viewBox="0 0 36 36" xml:space="preserve" xmlns="http://www.w3.org/2000/svg" xmlns:xlink="http://www.w3.org/1999/xlink"><style type="text/css">
	.st0{fill:#21bbed;}
	.st1{fill:none;stroke:#fff;stroke-width:2.0101;stroke-linejoin:round;stroke-miterlimit:10;}
	.st2{fill:#21bbed;}
	.st3{fill-rule:evenodd;clip-rule:evenodd;fill:#21bbed;}
</style><g id="Layer_1"/><g id="icons"><g id="cc_x5F_camera"><path class="st0" d="M28.5,19.8l-2.6,1.4c-0.6,0.3-1.3,0.3-1.8,0L9.7,12.5c-0.3-0.2-0.8-0.1-1,0.3l-0.3,0.6    c-0.2,0.3-0.1,0.7,0.2,0.9L15,18c-0.6,0.5-1,1.3-1,2.1c0,0.4,0.1,0.8,0.3,1.2c0,0.2-0.1,1.1-1,1.8c-0.9,0.8-1.7,0.8-1.9,0.8H6.8    v-0.6H6.2v-0.6c0-1.8-1.4-3.2-3.2-3.2h0V31h0c1.8,0,3.2-1.4,3.2-3.2v-0.6h0.6v-1.3h4.6c0,0,1.8,0.1,3.1-1c1-0.9,1.5-1.7,1.6-2    c0.2,0,0.4,0.1,0.6,0.1c1.3,0,2.5-0.9,2.7-2.2l6.4,3.8c0.1,0.1,0.2,0,0.3-0.1l2.6-4.4C28.9,19.9,28.7,19.7,28.5,19.8z"/><path class="st0" d="M32.8,21.2c0.4-0.7,0.1-1.6-0.6-2L31.9,19l0.2-0.4l-1.2-0.7l-3.3,5.9l1.2,0.7l0.2-0.4l0.4,0.2    c0.7,0.4,1.6,0.1,2-0.6L32.8,21.2z"/><path class="st0" d="M31.8,15.5L20.5,8.8l-1.8,2.8l-1-0.7l1.7-2.8l-0.9-0.5l-1.7,2.8l-1.1-0.7L17.5,7l-0.9-0.5L15,9.1l-1.1-0.7    l1.6-2.6l-0.8-0.5c0,0-0.8-0.4-1.6-0.3c-1.2,0.1-1.6,0.8-1.6,0.8l-3,4.6l15.6,9.5c0.4,0.3,1,0.3,1.4,0l6.3-3.4    C32.3,16.4,32.3,15.7,31.8,15.5z"/></g></g></svg>