<?xml version="1.0" encoding="utf-8"?>
<!-- Generator: Adobe Illustrator 19.2.1, SVG Export Plug-In . SVG Version: 6.00 Build 0)  -->
<svg version="1.1" id="layer" xmlns="http://www.w3.org/2000/svg" xmlns:xlink="http://www.w3.org/1999/xlink" x="0px" y="0px"
	 viewBox="0 0 652 652" style="enable-background:new 0 0 652 652;" xml:space="preserve">
<style type="text/css">
	.st0{fill:#041725;}
</style>
<g id="Page-1">
	<g id="_x2F_products" transform="translate(-240.000000, -88.000000)">
		<g id="Group-27" transform="translate(240.000000, 80.000000)">
			<g id="Group-3">
				
					<g id="Group" transform="translate(12.606602, 12.606602) rotate(-45.000000) translate(-12.606602, -12.606602) translate(4.106602, 4.106602)">
					<path id="Rectangle-16-Copy-5" class="st0" d="M-199.7,272.6h72.8c1.7,0,3.1,1.4,3.1,3.1V299c0,1.7-1.4,3.1-3.1,3.1h-69.7
						c-1.7,0-3.1-1.4-3.1-3.1V272.6z"/>
					<path id="Rectangle" class="st0" d="M-199.7,229.3c0-1.7,1.4-3.1,3.1-3.1h23.3c1.7,0,3.1,1.4,3.1,3.1v36.7h-29.5V229.3z"/>
				</g>
				<path id="VERKADA" class="st0" d="M170.3,301.6h7.9l18.8,48.1l18.8-48.1h7.9l-22.4,55.7h-8.6L170.3,301.6z M244.9,301.6h36.5
					v6.2h-29.5v17.9h29v6.2h-29v19.2h29.5v6.2h-36.5V301.6z M324.3,335.2h-11.1v22.1h-6.9v-55.7h22.4c3.4,0,6.4,0.7,9.1,2
					s4.7,3.3,6.2,5.9c1.5,2.6,2.2,5.5,2.2,8.8c0,3.2-0.7,6-2,8.4c-1.3,2.4-3.1,4.2-5.3,5.5c-2.2,1.3-4.6,2.1-7.2,2.3l15,22.7h-8.2
					L324.3,335.2z M335.8,310.7c-2.1-2-4.7-3-8-3h-14.6v21.3h14.6c3.3,0,6-1,8-3s3.1-4.6,3.1-7.7
					C338.9,315.3,337.8,312.7,335.8,310.7z M383.4,332.2l-5.6,6.3v18.7h-6.9v-55.7h6.9v28.8l24.6-28.8h8.7l-23.2,26.4l25.2,29.2
					h-8.6L383.4,332.2z M470,344.9h-28.2l-4.9,12.3h-7.7l22.4-55.7h8.6l22.4,55.7h-7.7L470,344.9z M443.8,338.7h24.1l-12-31
					L443.8,338.7z M503.7,301.6h19c5.6,0,10.6,1.2,14.9,3.6c4.3,2.4,7.7,5.8,10.1,10c2.4,4.3,3.5,9,3.5,14.2c0,5.3-1.2,10-3.5,14.2
					s-5.7,7.5-10.1,9.9c-4.3,2.4-9.3,3.6-14.9,3.6h-19V301.6z M522.7,351.1c4.4,0,8.2-1,11.4-2.9c3.2-1.9,5.7-4.5,7.4-7.8
					s2.5-6.9,2.5-10.9c0-4.1-0.8-7.7-2.5-11s-4.1-5.9-7.3-7.8c-3.2-1.9-7.1-2.9-11.5-2.9h-12.1v43.3H522.7z M608,344.9h-28.2
					l-4.9,12.3h-7.7l22.4-55.7h8.6l22.4,55.7h-7.7L608,344.9z M581.8,338.7h24.1l-12-31L581.8,338.7z"/>
			</g>
		</g>
	</g>
</g>
</svg>
