<?xml version="1.0" encoding="utf-8"?>
<!-- Generator: Adobe Illustrator 23.0.1, SVG Export Plug-In . SVG Version: 6.00 Build 0)  -->
<svg version="1.1" id="Layer_1" xmlns="http://www.w3.org/2000/svg" xmlns:xlink="http://www.w3.org/1999/xlink" x="0px" y="0px"
	 viewBox="0 0 1200 869.17" style="enable-background:new 0 0 1200 869.17;" xml:space="preserve">
<g>
	<path fill="#fff" d="M0,433.88c2.66-158.15,56.34-295.7,164.5-411.52c2.13-2.28,4.27-4.56,6.51-6.74c18.84-18.38,38.01-20.44,53.71-5.82
		c15.11,14.08,14.26,35.37-2.2,54.02C210.13,77.85,197,91.3,185.38,105.94C21.59,312.41,34.5,606.64,215.47,798.03
		c5.34,5.64,11.1,11.24,14.94,17.86c8.85,15.22,7.32,30.39-5.3,42.75c-12.61,12.34-27.78,13.85-42.8,4.38
		c-6.48-4.08-11.92-10.04-17.23-15.71C56.13,731.03,2.3,592.75,0,433.88z"/>
	<path fill="#fff" d="M1200,462.99c-2.3,131.31-56.44,269.46-165.65,385.53c-2.14,2.27-4.26,4.57-6.53,6.71c-17.73,16.79-36.79,18.27-52.05,4.09
		c-14.6-13.56-14.46-34.7,0.68-52.21c12.75-14.75,26.55-28.65,38.65-43.91c163.73-206.42,150.83-500.76-30.06-692.11
		c-5.34-5.64-11.15-11.21-14.98-17.83c-8.82-15.21-7.36-30.38,5.32-42.73C988-1.76,1003.16-3.36,1018.2,6.1
		c6.48,4.08,11.87,10.08,17.22,15.72C1142.15,134.32,1200.14,280.13,1200,462.99z"/>
	<path fill="#fff" d="M601.29,582.87c-81.14,0.88-149.38-66.94-149.35-148.42c0.03-80.47,66.44-147.29,147.26-148.17
		c81.19-0.88,149.45,66.97,149.32,148.41C748.39,515.37,682.19,581.99,601.29,582.87z M600.95,356.85
		c-42.15-0.5-77.52,33.97-78.43,76.43c-0.9,42.1,33.29,77.73,75.83,79.03c42.9,1.31,79.49-34.37,79.58-77.59
		C678.02,392.35,643.41,357.35,600.95,356.85z"/>
	<path fill="#fff" d="M300.39,106.74c32.19-0.17,49.57,26.49,38.24,49.4c-3.7,7.47-9.95,13.84-15.71,20.08
		C187.12,323.19,187.1,545.8,322.96,692.89c2.65,2.87,5.53,5.53,8.05,8.5c15.21,17.89,15.03,38.24-0.39,52.04
		c-14.72,13.18-34.22,12.38-50.17-3.59c-47.05-47.08-83.01-101.73-103.49-165.07c-55.65-172.09-23.04-326.05,98.75-460.28
		C283.58,115.82,295.1,110.46,300.39,106.74z"/>
	<path fill="#fff" d="M1049.9,441.15c-2.52,114.24-43.39,218.34-126.32,305.45c-13.77,14.46-29,21.47-47.91,10.91
		c-22.01-12.29-23.42-37.66-2.97-59.33c49.9-52.88,84.13-114.09,98.08-185.71c25-128.34-7.39-240.86-94.64-337.96
		c-6.16-6.86-15.86-15.25-15.37-22.34c0.92-13.32,4.56-29.9,13.47-38.42c14.18-13.56,31.87-8.52,45.79,5.41
		c41.91,41.95,73.95,90.56,96.38,145.32C1038.83,319.23,1049.41,376.48,1049.9,441.15z"/>
	<path fill="#fff" d="M301.08,433.16c1.98-77.08,27.7-144.74,80.12-201.73c18.2-19.79,39.35-23.34,55.26-9.82c17.34,14.74,16.23,35.3-3.07,57.22
		c-82.7,93.9-82.56,217.56,0.34,311.88c18.69,21.27,20.09,40.38,4.05,55.58c-15.96,15.13-37.89,11.86-56.93-8.93
		C327.96,579.6,302.39,511.11,301.08,433.16z"/>
	<path fill="#fff" d="M899.4,435.38c-1.86,77.07-27.45,144.78-79.69,201.92c-19.01,20.8-40.93,24.12-56.93,9.04
		c-16.09-15.17-14.74-34.29,3.93-55.53c82.82-94.22,83.02-218.59,0.49-311.94c-19.4-21.94-20.56-42.35-3.25-57.18
		c15.9-13.62,37.13-10.12,55.28,9.63C872.21,288.99,897.89,357.44,899.4,435.38z"/>
</g>
</svg>
