<?xml version="1.0" ?><!DOCTYPE svg  PUBLIC '-//W3C//DTD SVG 1.1//EN'  'http://www.w3.org/Graphics/SVG/1.1/DTD/svg11.dtd'><svg height="128px" id="Layer_1" style="enable-background:new 0 0 128 128;" version="1.1" viewBox="0 0 128 128" width="128px" xml:space="preserve" xmlns="http://www.w3.org/2000/svg" xmlns:xlink="http://www.w3.org/1999/xlink"><g><path d="M43.269,55.491c-1.107,2.406-1.875,5.299-1.871,8.507c-0.003,3.208,0.764,6.1,1.871,8.507   c1.118,2.429,2.547,4.376,3.943,5.924l7.918-7.917c-0.692-0.833-1.327-1.787-1.78-2.821c-0.484-1.117-0.778-2.303-0.782-3.692   c0.003-1.456,0.327-2.691,0.854-3.853c0.442-0.975,1.058-1.868,1.714-2.658l-7.925-7.926c-0.007,0.007-0.015,0.015-0.02,0.022   C45.805,51.125,44.377,53.077,43.269,55.491z" style="fill:#fff;"/><path d="M26.889,49.055c-1.958,4.263-3.293,9.304-3.289,14.938c-0.004,5.634,1.33,10.674,3.287,14.936   c2.239,4.872,5.244,8.753,8.1,11.727l7.9-7.899c-0.396-0.419-0.795-0.854-1.188-1.313c-1.829-2.129-3.576-4.683-4.845-7.588   c-1.271-2.912-2.08-6.157-2.084-9.862c0.004-3.883,0.895-7.266,2.273-10.284c1.527-3.346,3.7-6.213,5.84-8.476l-7.9-7.9   c-0.349,0.364-0.7,0.738-1.053,1.129C31.41,41.268,28.847,44.784,26.889,49.055z" style="fill:#fff;"/><path d="M20.765,26.693c-3.722,4.143-7.487,9.318-10.348,15.556c-2.86,6.231-4.795,13.547-4.792,21.754   c-0.003,8.207,1.931,15.522,4.79,21.751c3.309,7.207,7.804,12.984,12.071,17.4l7.901-7.9c-0.538-0.56-1.077-1.135-1.615-1.744   c-3.078-3.476-6.09-7.722-8.308-12.643c-2.219-4.929-3.665-10.509-3.668-16.865c0.003-6.454,1.496-12.114,3.776-17.1   c2.595-5.679,6.263-10.449,9.822-14.16l-7.898-7.898C21.921,25.44,21.345,26.049,20.765,26.693z" style="fill:#fff;"/><circle cx="63.939" cy="63.994" r="5.422" style="fill:#fff;"/><path d="M84.732,72.509c1.107-2.406,1.875-5.299,1.871-8.507c0.004-3.208-0.764-6.1-1.871-8.506   c-1.118-2.429-2.547-4.376-3.943-5.925l-7.918,7.917c0.692,0.833,1.327,1.787,1.779,2.822c0.484,1.116,0.778,2.302,0.782,3.692   c-0.004,1.456-0.327,2.69-0.854,3.853c-0.441,0.975-1.059,1.868-1.715,2.658l7.926,7.927c0.007-0.008,0.015-0.015,0.02-0.022   C82.196,76.874,83.623,74.924,84.732,72.509z" style="fill:#fff;"/><path d="M101.111,78.945c1.958-4.263,3.293-9.304,3.289-14.938c0.004-5.635-1.33-10.674-3.287-14.937   c-2.239-4.872-5.242-8.752-8.099-11.726l-7.9,7.899c0.396,0.419,0.795,0.854,1.188,1.314c1.829,2.129,3.576,4.683,4.846,7.588   c1.271,2.912,2.079,6.157,2.083,9.862c-0.004,3.882-0.895,7.266-2.272,10.285c-1.527,3.345-3.7,6.213-5.84,8.476l7.899,7.899   c0.35-0.363,0.7-0.738,1.053-1.129C96.591,86.732,99.153,83.216,101.111,78.945z" style="fill:#fff;"/><path d="M107.235,101.307c3.722-4.143,7.487-9.317,10.348-15.556c2.86-6.231,4.795-13.548,4.792-21.754   c0.003-8.207-1.931-15.522-4.79-21.752c-3.309-7.206-7.804-12.983-12.07-17.4l-7.901,7.9c0.538,0.56,1.076,1.136,1.614,1.745   c3.078,3.476,6.09,7.722,8.309,12.643c2.219,4.928,3.664,10.509,3.668,16.865c-0.004,6.455-1.495,12.114-3.776,17.1   c-2.596,5.679-6.263,10.448-9.821,14.159l7.897,7.898C106.079,102.56,106.655,101.95,107.235,101.307z" style="fill:#fff;"/></g></svg>