<?xml version="1.0" ?><svg data-name="Layer 2" id="Layer_2" viewBox="0 0 35 35" xmlns="http://www.w3.org/2000/svg"><path fill='#21bbed' d="M25.37,34.75H9.63A9.39,9.39,0,0,1,.25,25.37V9.63A9.39,9.39,0,0,1,9.63.25H25.37a9.39,9.39,0,0,1,9.38,9.38V25.37A9.39,9.39,0,0,1,25.37,34.75ZM9.63,2.75A6.89,6.89,0,0,0,2.75,9.63V25.37a6.89,6.89,0,0,0,6.88,6.88H25.37a6.89,6.89,0,0,0,6.88-6.88V9.63a6.89,6.89,0,0,0-6.88-6.88Z"/><path fill='#21bbed' d="M14.16,24.42A2.46,2.46,0,0,1,11.72,22V13a2.44,2.44,0,0,1,3.8-2l6.68,4.47a2.45,2.45,0,0,1,0,4.06L15.52,24A2.4,2.4,0,0,1,14.16,24.42Zm0-2.49.69,1-.69-1Zm.09-8.79v8.72l6.51-4.36Zm6.58,4.31Z"/></svg>